<?xml version="1.0" encoding="utf-8"?>
<!-- Generator: Adobe Illustrator 15.1.0, SVG Export Plug-In . SVG Version: 6.00 Build 0)  -->
<!DOCTYPE svg PUBLIC "-//W3C//DTD SVG 1.1//EN" "http://www.w3.org/Graphics/SVG/1.1/DTD/svg11.dtd">
<svg version="1.1" id="Layer_1" xmlns="http://www.w3.org/2000/svg" xmlns:xlink="http://www.w3.org/1999/xlink" x="0px" y="0px"
	 width="74px" height="85px" viewBox="0 0 74 85" enable-background="new 0 0 74 85" xml:space="preserve">
<circle fill="#32AA49" stroke="#000000" stroke-miterlimit="10" cx="34.667" cy="60.628" r="10"/>
<circle stroke="#000000" stroke-miterlimit="10" cx="12.496" cy="10.934" r="5"/>
<circle fill="#8A3E97" stroke="#000000" stroke-miterlimit="10" cx="62.29" cy="35.118" r="5"/>
<circle fill="#8A3E97" stroke="#000000" stroke-miterlimit="10" cx="13.333" cy="40.587" r="5"/>
<circle fill="#32AA49" stroke="#000000" stroke-miterlimit="10" cx="9.794" cy="75.628" r="5"/>
<circle fill="#32AA49" stroke="#000000" stroke-miterlimit="10" cx="65.439" cy="73.141" r="5"/>
<circle stroke="#000000" stroke-miterlimit="10" cx="46.337" cy="14.315" r="5"/>
<circle stroke="#000000" stroke-miterlimit="10" cx="61.728" cy="18.078" r="5"/>
<circle fill="#8A3E97" stroke="#000000" stroke-miterlimit="10" cx="34.667" cy="35.118" r="5"/>
<line fill="none" stroke="#000000" stroke-miterlimit="10" x1="16.339" y1="44.576" x2="27.099" y2="54.102"/>
<line fill="none" stroke="#000000" stroke-miterlimit="10" x1="34.667" y1="40.118" x2="34.667" y2="50.628"/>
<line fill="none" stroke="#000000" stroke-miterlimit="10" x1="60.439" y1="40.118" x2="42.235" y2="54.102"/>
<line fill="none" stroke="#000000" stroke-miterlimit="10" x1="14.128" y1="73.141" x2="27.099" y2="67.153"/>
<line fill="none" stroke="#000000" stroke-miterlimit="10" x1="43.51" y1="65.298" x2="60.439" y2="71.614"/>
<line fill="none" stroke="#000000" stroke-miterlimit="10" x1="38.528" y1="51.401" x2="59.734" y2="23.078"/>
<line fill="none" stroke="#000000" stroke-miterlimit="10" x1="14.128" y1="15.934" x2="29.667" y2="51.401"/>
<line fill="none" stroke="#000000" stroke-miterlimit="10" x1="45.562" y1="19.315" x2="37" y2="50.909"/>
<line fill="none" stroke="#000000" stroke-miterlimit="10" stroke-dasharray="3" x1="2.929" y1="26.396" x2="70.439" y2="26.508"/>
<line fill="none" stroke="#000000" stroke-miterlimit="10" stroke-dasharray="3" x1="3.245" y1="48.012" x2="70.755" y2="48.124"/>
</svg>
