<?xml version="1.0" encoding="utf-8"?>
<!-- Generator: Adobe Illustrator 15.1.0, SVG Export Plug-In . SVG Version: 6.00 Build 0)  -->
<!DOCTYPE svg PUBLIC "-//W3C//DTD SVG 1.1//EN" "http://www.w3.org/Graphics/SVG/1.1/DTD/svg11.dtd">
<svg version="1.1" id="Layer_1" xmlns="http://www.w3.org/2000/svg" xmlns:xlink="http://www.w3.org/1999/xlink" x="0px" y="0px"
	 width="74px" height="85px" viewBox="0 0 74 85" enable-background="new 0 0 74 85" xml:space="preserve">
<path fill="#98D0A0" stroke="#000000" stroke-miterlimit="10" d="M71.896,71.05c0,5.965-5.289,10.801-11.813,10.801H40.964
	c-6.524,0-11.813-4.836-11.813-10.801V56.432c0-5.966,5.289-10.801,11.813-10.801h19.118c6.524,0,11.813,4.835,11.813,10.801V71.05z
	"/>
<path fill="#ED9C94" stroke="#000000" stroke-miterlimit="10" d="M70.071,32.761c0,6.627-5.373,12-12,12h-4.347
	c-6.627,0-12-5.373-12-12V15.223c0-6.627,5.373-12,12-12h4.347c6.627,0,12,5.373,12,12V32.761z"/>
<path fill="#9A9AC0" stroke="#000000" stroke-miterlimit="10" d="M19.577,75.045c0,4.442-3.601,8.043-8.043,8.043l0,0
	c-4.441,0-8.042-3.601-8.042-8.043V49.511c0-4.441,3.601-8.042,8.042-8.042l0,0c4.442,0,8.043,3.601,8.043,8.042V75.045z"/>
<path fill="#BFE2E5" stroke="#000000" stroke-miterlimit="10" d="M32.338,25.5c0,6.627-5.373,12-12,12h-6.759
	c-6.627,0-12-5.373-12-12v-9.826c0-6.627,5.373-12,12-12h6.759c6.627,0,12,5.373,12,12V25.5z"/>
<circle fill="#32AA49" stroke="#000000" stroke-miterlimit="10" cx="42.338" cy="57.141" r="10"/>
<circle fill="#312F8F" stroke="#000000" stroke-miterlimit="10" cx="11.258" cy="62.141" r="5"/>
<circle fill="#73CDDA" stroke="#000000" stroke-miterlimit="10" cx="22.733" cy="11.578" r="5"/>
<circle fill="#73CDDA" stroke="#000000" stroke-miterlimit="10" cx="10.61" cy="25.115" r="5"/>
<circle fill="#32AA49" stroke="#000000" stroke-miterlimit="10" cx="37.338" cy="74.74" r="5"/>
<circle fill="#32AA49" stroke="#000000" stroke-miterlimit="10" cx="49.309" cy="74.74" r="5"/>
<circle fill="#312F8F" stroke="#000000" stroke-miterlimit="10" cx="11.258" cy="49.762" r="5"/>
<circle fill="#312F8F" stroke="#000000" stroke-miterlimit="10" cx="11.258" cy="74.282" r="5"/>
<circle fill="#73CDDA" stroke="#000000" stroke-miterlimit="10" cx="9.783" cy="11.578" r="5"/>
<circle fill="#EF3E23" stroke="#000000" stroke-miterlimit="10" cx="62.258" cy="11.578" r="5"/>
<circle fill="#EF3E23" stroke="#000000" stroke-miterlimit="10" cx="50.136" cy="25.115" r="5"/>
<circle fill="#EF3E23" stroke="#000000" stroke-miterlimit="10" cx="49.309" cy="11.578" r="5"/>
<circle fill="#EF3E23" stroke="#000000" stroke-miterlimit="10" cx="50.136" cy="37.5" r="5"/>
<circle fill="#EF3E23" stroke="#000000" stroke-miterlimit="10" cx="62.258" cy="25.115" r="5"/>
<circle fill="#32AA49" stroke="#000000" stroke-miterlimit="10" cx="61.783" cy="51.141" r="5"/>
<circle fill="#32AA49" stroke="#000000" stroke-miterlimit="10" cx="61.783" cy="63.19" r="5"/>
<circle fill="#32AA49" stroke="#000000" stroke-miterlimit="10" cx="61.783" cy="75.148" r="5"/>
</svg>
